<svg xmlns="http://www.w3.org/2000/svg" xml:space="preserve" width="659" height="197">
    <defs>
        <clipPath id="b" clipPathUnits="userSpaceOnUse">
            <path d="M0 150h496V0H0Z"/>
        </clipPath>
        <clipPath id="c" clipPathUnits="userSpaceOnUse">
            <path d="M23.894 122.428V34.76c0-4.133 3.382-7.514 7.515-7.514h95.181c4.133 0 7.515 3.381 7.515 7.514v87.668zm37.572-15.029a5.009 5.009 0 0 0 5.01 5.01h25.048a5.01 5.01 0 0 0 5.01-5.01 5.01 5.01 0 0 0-5.01-5.01H66.476a5.009 5.009 0 0 0-5.01 5.01"/>
        </clipPath>
        <clipPath id="d" clipPathUnits="userSpaceOnUse">
            <path d="M31.409 34.76v-.116l.001-.089v-.088l.001-.07v-.1l.001-.008.001-.106v-.047l.001-.012v-.08l.001-.046v-.017l.003-.145v-.005l.006-.237V33.542l.001-.015v-.02l.003-.115.002-.034.002-.072v-.004l.001-.046v-.012l.006-.154.001-.02.003-.105v-.006l.002-.033V32.892l.001-.013v-.004l.011-.267.006-.142.001-.011.001-.024v-.007l.001-.006.002-.054.002-.032v-.006l.001-.005v-.013l.006-.108.002-.039v-.003l.014-.239.003-.059.001-.008V31.843l.008-.133v-.002l.001-.005v-.002l.02-.299v-.004l.005-.059.003-.047.002-.041.001-.006c.029-.395.063-.791.101-1.184l.004-.038.009-.094.006-.056.006-.063c.042-.399.088-.796.139-1.192l.002-.017.013-.103a.569.569 0 0 0 .005-.038l.012-.086.01-.076.007-.054c.046-.334.095-.667.148-.998h94.002c.076.48.145.961.206 1.446l.001.008.012.094.009.071.008.064.012.105.005.04.016.132.002.019a49.699 49.699 0 0 1 .221 2.474l.001.003v.01l.008.134.001.002v.007l.004.073.007.114.006.117v.001l.004.065.001.012v.016l.001.008a.397.397 0 0 1 .001.035l.001.007v.005l.001.005v.015l.003.056.002.046.001.024h.001v.009l.012.276v.003l.001.013v.004l.001.024v.005l.005.118V32.926l.004.099.002.038v.013l.003.087.002.061v.011l.002.045.002.086.001.01v.011l.003.106v.025l.001.024v.003l.001.021.002.089.003.172.001.021v.034l.001.066.001.007V34.007l.001.061v.005l.001.029v.031l.001.038v.01l.001.113v.004l.001.05v.048l.001.072v.292c0 26.284-21.306 47.591-47.59 47.591-26.283 0-47.591-21.307-47.591-47.591"/>
        </clipPath>
        <clipPath id="e" clipPathUnits="userSpaceOnUse">
            <path d="M23.894 122.428V34.76c0-4.133 3.382-7.514 7.515-7.514h95.181c4.133 0 7.515 3.381 7.515 7.514v87.668zm37.572-15.029a5.009 5.009 0 0 0 5.01 5.01h25.048a5.01 5.01 0 0 0 5.01-5.01 5.01 5.01 0 0 0-5.01-5.01H66.476a5.009 5.009 0 0 0-5.01 5.01"/>
        </clipPath>
        <clipPath id="f" clipPathUnits="userSpaceOnUse">
            <path d="M23.895 122.428h110.21V74.837H23.895Z"/>
        </clipPath>
        <radialGradient id="a" cx="0" cy="0" r="1" fx="0" fy="0" gradientTransform="translate(23.583 122.838)scale(142.51974)" gradientUnits="userSpaceOnUse" spreadMethod="pad">
            <stop offset="0" style="stop-opacity:.09999237;stop-color:#fff"/>
            <stop offset="1" style="stop-opacity:0;stop-color:#fff"/>
        </radialGradient>
    </defs>
    <path d="M16 0h627a16 16 45 0 1 16 16v165a16 16 135 0 1-16 16H16a16 16 45 0 1-16-16V16A16 16 135 0 1 16 0Z" style="display:inline;fill:#fff;fill-opacity:1;fill-rule:nonzero;stroke:none;stroke-width:1.33333"/>
    <path d="M643 0H16A16 16 135 0 0 0 16v165a16 16 45 0 0 16 16h627a16 16 135 0 0 16-16V16a16 16 45 0 0-16-16zm0 194H16a13 13 45 0 1-13-13V16A13 13 135 0 1 16 3h627a13 13 45 0 1 13 13v165a13 13 135 0 1-13 13z" style="fill:#dadce0;fill-opacity:1;fill-rule:nonzero;stroke:none;stroke-width:2.033;stroke-dasharray:none;stroke-opacity:1"/>
    <g clip-path="url(#b)" transform="matrix(1.33333 0 0 -1.33333 -1.333 198.667)">
        <path d="M0 0c-3.897 0-7.166 1.319-9.805 3.959-2.639 2.639-3.959 5.932-3.959 9.879 0 3.946 1.32 7.239 3.959 9.879 2.639 2.638 5.908 3.959 9.805 3.959 3.996 0 7.239-1.444 9.731-4.329l-2.368-2.294C5.562 23.297 3.108 24.42 0 24.42c-2.886 0-5.322-.975-7.307-2.923-1.986-1.949-2.979-4.502-2.979-7.659 0-3.158.993-5.711 2.979-7.659C-5.322 4.229-2.886 3.256 0 3.256c3.182 0 5.896 1.282 8.14 3.848l2.368-2.369C9.299 3.28 7.782 2.127 5.957 1.276 4.131.426 2.146 0 0 0" style="fill:#5f6368;fill-opacity:1;fill-rule:nonzero;stroke:none" transform="translate(173.133 43.839)"/>
        <path d="M0 0v-8.362l-.148-2.516H0c.493.863 1.27 1.597 2.331 2.201a6.756 6.756 0 0 0 3.404.906c2.244 0 3.959-.69 5.143-2.071 1.184-1.382 1.776-3.232 1.776-5.551v-11.099H9.25v10.582c0 3.354-1.493 5.032-4.477 5.032-1.406 0-2.553-.561-3.441-1.684C.444-13.685 0-14.985 0-16.465v-10.027h-3.404V0Z" style="fill:#5f6368;fill-opacity:1;fill-rule:nonzero;stroke:none" transform="translate(190.08 70.923)"/>
        <path d="M0 0h-3.404v18.13h3.256v-2.96H0c.345.986 1.054 1.801 2.127 2.442 1.073.641 2.115.962 3.127.962 1.011 0 1.862-.148 2.553-.444l-1.295-3.182c-.444.172-1.049.259-1.813.259-1.234 0-2.325-.487-3.275-1.462C.475 12.771 0 11.494 0 9.916Z" style="fill:#5f6368;fill-opacity:1;fill-rule:nonzero;stroke:none" transform="translate(210.133 44.43)"/>
        <path d="M0 0c1.171-1.196 2.559-1.795 4.163-1.795 1.603 0 2.99.599 4.162 1.795 1.172 1.196 1.758 2.78 1.758 4.755 0 1.973-.586 3.558-1.758 4.754-1.172 1.196-2.559 1.795-4.162 1.795-1.604 0-2.992-.599-4.163-1.795-1.171-1.196-1.757-2.781-1.757-4.754C-1.757 2.78-1.171 1.196 0 0m-2.534 11.655c1.751 1.837 3.983 2.756 6.697 2.756 2.713 0 4.945-.919 6.697-2.756 1.751-1.838 2.627-4.138 2.627-6.9 0-2.764-.876-5.064-2.627-6.901-1.752-1.838-3.984-2.756-6.697-2.756-2.714 0-4.946.918-6.697 2.756-1.752 1.837-2.627 4.137-2.627 6.901 0 2.762.875 5.062 2.627 6.9" style="fill:#5f6368;fill-opacity:1;fill-rule:nonzero;stroke:none" transform="translate(223.174 48.741)"/>
        <path d="M0 0v18.13h3.256v-2.516h.148c.518.864 1.314 1.597 2.387 2.201 1.073.605 2.139.907 3.2.907 2.812 0 4.723-1.16 5.735-3.478 1.481 2.318 3.59 3.478 6.327 3.478 2.147 0 3.762-.685 4.847-2.053 1.086-1.369 1.628-3.226 1.628-5.569V0h-3.403v10.582c0 1.825-.333 3.12-1 3.885-.666.764-1.678 1.147-3.034 1.147-1.332 0-2.436-.568-3.311-1.702-.876-1.135-1.314-2.43-1.314-3.885V0h-3.404v10.582c0 1.825-.333 3.12-.999 3.885-.665.764-1.677 1.147-3.034 1.147-1.332 0-2.436-.568-3.311-1.702-.876-1.135-1.314-2.43-1.314-3.885V0Z" style="fill:#5f6368;fill-opacity:1;fill-rule:nonzero;stroke:none" transform="translate(239.399 44.43)"/>
        <path d="M0 0c-.074 1.036-.549 2.022-1.425 2.96-.875.937-2.177 1.406-3.903 1.406-1.258 0-2.35-.395-3.275-1.184-.924-.789-1.56-1.85-1.905-3.182Zm-4.884-11.84c-2.738 0-4.965.912-6.679 2.738-1.714 1.825-2.571 4.131-2.571 6.919 0 2.639.832 4.909 2.497 6.808s3.793 2.849 6.383 2.849c2.689 0 4.841-.876 6.456-2.627C2.817 3.096 3.626.752 3.626-2.183l-.037-.63h-14.318c.097-1.825.708-3.268 1.831-4.328 1.122-1.061 2.435-1.591 3.94-1.591 2.442 0 4.095 1.036 4.958 3.108l3.034-1.258C2.442-8.288 1.468-9.466.111-10.416c-1.357-.949-3.022-1.424-4.995-1.424" style="fill:#5f6368;fill-opacity:1;fill-rule:nonzero;stroke:none" transform="translate(284.02 55.679)"/>
        <path d="m0 0-7.067-26.492h-3.479l-5.697 17.464h-.149l-5.698-17.464h-3.477L-32.931 0h3.552l5.588-20.831h.147l5.736 17.279h3.181l5.736-17.279h.147L-3.553 0Z" style="fill:#5f6368;fill-opacity:1;fill-rule:nonzero;stroke:none" transform="translate(328.865 70.923)"/>
        <path d="M0 0c-.074 1.036-.549 2.022-1.425 2.96-.875.937-2.177 1.406-3.903 1.406-1.258 0-2.35-.395-3.275-1.184-.924-.789-1.56-1.85-1.905-3.182Zm-4.884-11.84c-2.738 0-4.965.912-6.679 2.738-1.714 1.825-2.571 4.131-2.571 6.919 0 2.639.832 4.909 2.497 6.808s3.793 2.849 6.383 2.849c2.689 0 4.841-.876 6.456-2.627C2.817 3.096 3.626.752 3.626-2.183l-.037-.63h-14.318c.097-1.825.708-3.268 1.831-4.328 1.122-1.061 2.435-1.591 3.94-1.591 2.442 0 4.095 1.036 4.958 3.108l3.034-1.258C2.442-8.288 1.468-9.466.111-10.416c-1.357-.949-3.022-1.424-4.995-1.424" style="fill:#5f6368;fill-opacity:1;fill-rule:nonzero;stroke:none" transform="translate(342.592 55.679)"/>
        <path d="M0 0c1.579 0 2.936.599 4.07 1.795 1.135 1.196 1.702 2.78 1.702 4.755 0 1.972-.567 3.557-1.702 4.754C2.936 12.5 1.579 13.099 0 13.099c-1.604 0-2.966-.592-4.088-1.777-1.123-1.183-1.683-2.774-1.683-4.772 0-1.998.56-3.59 1.683-4.774C-2.966.593-1.604 0 0 0m.556-3.107c-1.382 0-2.621.295-3.719.887C-4.261-1.628-5.081-.888-5.624 0h-.147v-2.516h-3.256v26.493h3.403v-8.363l-.147-2.515h.147c.543.887 1.363 1.628 2.461 2.219 1.098.592 2.337.888 3.719.888 2.342 0 4.366-.925 6.067-2.774 1.702-1.851 2.554-4.145 2.554-6.882 0-2.738-.852-5.032-2.554-6.883C4.922-2.183 2.898-3.107.556-3.107" style="fill:#5f6368;fill-opacity:1;fill-rule:nonzero;stroke:none" transform="translate(358.353 46.946)"/>
        <path d="M0 0c-1.924 0-3.805.629-5.643 1.887-1.837 1.258-3.04 3.021-3.607 5.291l3.108 1.258a7.1 7.1 0 0 1 2.276-3.682C-2.719 3.755-1.431 3.256 0 3.256c1.48 0 2.744.389 3.793 1.165 1.048.777 1.572 1.832 1.572 3.164 0 1.479-.524 2.62-1.572 3.422-1.049.802-2.708 1.548-4.977 2.239-2.343.739-4.12 1.695-5.328 2.867-1.209 1.171-1.812 2.67-1.812 4.495 0 1.9.752 3.553 2.257 4.958 1.504 1.407 3.464 2.11 5.882 2.11 2.245 0 4.071-.562 5.476-1.684 1.406-1.123 2.318-2.349 2.738-3.681l-3.108-1.295c-.222.838-.771 1.615-1.647 2.331-.875.715-2.003 1.073-3.384 1.073-1.308 0-2.424-.364-3.349-1.092-.925-.727-1.388-1.634-1.388-2.72 0-.986.426-1.819 1.277-2.497.851-.678 2.102-1.289 3.756-1.831 1.306-.42 2.398-.827 3.274-1.221a15.225 15.225 0 0 0 2.664-1.573 6.273 6.273 0 0 0 2.035-2.442c.456-.975.685-2.103.685-3.385 0-1.283-.266-2.43-.796-3.441-.531-1.012-1.234-1.813-2.11-2.406A10.607 10.607 0 0 0 0 0" style="fill:#5f6368;fill-opacity:1;fill-rule:nonzero;stroke:none" transform="translate(385.733 43.839)"/>
        <path d="M0 0c-1.899 0-3.349.505-4.348 1.517-.999 1.011-1.498 2.442-1.498 4.292v9.509h-3.182v3.108h3.182v5.55h3.404v-5.55h4.44v-3.108h-4.44v-9.25c0-1.974.814-2.961 2.442-2.961.616 0 1.134.099 1.554.297L2.738.48C1.998.16 1.085 0 0 0" style="fill:#5f6368;fill-opacity:1;fill-rule:nonzero;stroke:none" transform="translate(405.048 44.135)"/>
        <path d="M0 0c1.172-1.196 2.559-1.795 4.163-1.795 1.603 0 2.99.599 4.162 1.795 1.171 1.196 1.758 2.78 1.758 4.755 0 1.973-.587 3.558-1.758 4.754-1.172 1.196-2.559 1.795-4.162 1.795-1.604 0-2.991-.599-4.163-1.795-1.172-1.196-1.757-2.781-1.757-4.754C-1.757 2.78-1.172 1.196 0 0m-2.534 11.655c1.751 1.837 3.983 2.756 6.697 2.756 2.713 0 4.945-.919 6.696-2.756 1.752-1.838 2.627-4.138 2.627-6.9 0-2.764-.875-5.064-2.627-6.901-1.751-1.838-3.983-2.756-6.696-2.756-2.714 0-4.946.918-6.697 2.756-1.752 1.837-2.627 4.137-2.627 6.901 0 2.762.875 5.062 2.627 6.9" style="fill:#5f6368;fill-opacity:1;fill-rule:nonzero;stroke:none" transform="translate(414.242 48.741)"/>
        <path d="M0 0h-3.403v18.13h3.256v-2.96H0c.346.986 1.055 1.801 2.128 2.442 1.073.641 2.115.962 3.127.962 1.011 0 1.861-.148 2.553-.444l-1.295-3.182c-.445.172-1.049.259-1.814.259-1.233 0-2.325-.487-3.274-1.462C.475 12.771 0 11.494 0 9.916Z" style="fill:#5f6368;fill-opacity:1;fill-rule:nonzero;stroke:none" transform="translate(433.87 44.43)"/>
        <path d="M0 0c-.074 1.036-.549 2.022-1.425 2.96-.875.937-2.177 1.406-3.903 1.406-1.258 0-2.35-.395-3.275-1.184-.924-.789-1.56-1.85-1.905-3.182Zm-4.884-11.84c-2.738 0-4.965.912-6.679 2.738-1.714 1.825-2.571 4.131-2.571 6.919 0 2.639.832 4.909 2.497 6.808s3.793 2.849 6.383 2.849c2.689 0 4.841-.876 6.456-2.627C2.817 3.096 3.626.752 3.626-2.183l-.037-.63h-14.318c.097-1.825.708-3.268 1.831-4.328 1.122-1.061 2.435-1.591 3.94-1.591 2.442 0 4.095 1.036 4.958 3.108l3.034-1.258C2.442-8.288 1.468-9.466.111-10.416c-1.357-.949-3.022-1.424-4.995-1.424" style="fill:#5f6368;fill-opacity:1;fill-rule:nonzero;stroke:none" transform="translate(455.885 55.679)"/>
        <path d="M0 0h6.664L3.388 9.044h-.112Zm-5.684-7.84 7.56 20.048h2.912l7.56-20.048H9.492L7.56-2.408H-.868l-1.96-5.432z" style="fill:#5f6368;fill-opacity:1;fill-rule:nonzero;stroke:none" transform="translate(167.02 93.402)"/>
        <path d="m0 0-5.544 13.72h2.8L1.288 3.08h.056l4.088 10.64h2.744L2.576 0Z" style="fill:#5f6368;fill-opacity:1;fill-rule:nonzero;stroke:none" transform="translate(183.96 85.562)"/>
        <path d="M0 0c1.064 0 2.03.396 2.898 1.189.868.793 1.302 1.732 1.302 2.815-.728.597-1.82.895-3.276.895-1.251 0-2.194-.27-2.828-.811-.635-.542-.952-1.176-.952-1.904 0-.672.289-1.205.868-1.596C-1.41.195-.747 0 0 0m-.42-2.353c-1.456 0-2.674.42-3.654 1.26-.98.841-1.47 1.951-1.47 3.332 0 1.493.578 2.665 1.736 3.515 1.157.849 2.585 1.273 4.284 1.273 1.512 0 2.753-.279 3.724-.84v.393c0 1.008-.346 1.815-1.036 2.422-.691.606-1.54.91-2.548.91a3.952 3.952 0 0 1-2.03-.532c-.607-.356-1.022-.84-1.246-1.456l-2.352 1.008c.317.821.942 1.582 1.876 2.282.933.7 2.165 1.05 3.696 1.05 1.754 0 3.21-.514 4.368-1.54 1.157-1.027 1.736-2.474 1.736-4.34v-8.288H4.2V0h-.112C3.061-1.568 1.558-2.353-.42-2.353" style="fill:#5f6368;fill-opacity:1;fill-rule:nonzero;stroke:none" transform="translate(198.296 87.466)"/>
        <path d="M210.672 85.562h-2.576v13.72h2.576zm0 17.164a1.757 1.757 0 0 0-1.288-.532c-.504 0-.934.178-1.288.532a1.754 1.754 0 0 0-.533 1.288c0 .504.178.933.533 1.288.354.355.784.532 1.288.532s.933-.177 1.288-.532c.354-.355.532-.784.532-1.288s-.178-.933-.532-1.288M216.607 85.562h-2.576v20.048h2.576z" style="fill:#5f6368;fill-opacity:1;fill-rule:nonzero;stroke:none"/>
        <path d="M0 0c1.064 0 2.03.396 2.898 1.189.868.793 1.302 1.732 1.302 2.815-.728.597-1.82.895-3.276.895-1.251 0-2.194-.27-2.828-.811-.635-.542-.952-1.176-.952-1.904 0-.672.289-1.205.868-1.596C-1.41.195-.747 0 0 0m-.42-2.353c-1.456 0-2.674.42-3.654 1.26-.98.841-1.47 1.951-1.47 3.332 0 1.493.578 2.665 1.736 3.515 1.157.849 2.585 1.273 4.284 1.273 1.512 0 2.753-.279 3.724-.84v.393c0 1.008-.346 1.815-1.036 2.422-.691.606-1.54.91-2.548.91a3.952 3.952 0 0 1-2.03-.532c-.607-.356-1.022-.84-1.246-1.456l-2.352 1.008c.317.821.942 1.582 1.876 2.282.933.7 2.165 1.05 3.696 1.05 1.754 0 3.21-.514 4.368-1.54 1.157-1.027 1.736-2.474 1.736-4.34v-8.288H4.2V0h-.112C3.061-1.568 1.558-2.353-.42-2.353" style="fill:#5f6368;fill-opacity:1;fill-rule:nonzero;stroke:none" transform="translate(224.364 87.466)"/>
        <path d="M0 0c1.194 0 2.221.452 3.08 1.357.858.906 1.288 2.105 1.288 3.599 0 1.493-.43 2.692-1.288 3.598-.859.905-1.886 1.358-3.08 1.358-1.213 0-2.245-.448-3.094-1.345-.849-.895-1.274-2.099-1.274-3.611 0-1.513.425-2.717 1.274-3.612C-2.245.447-1.213 0 0 0m.42-2.353c-1.045 0-1.983.225-2.814.672C-3.225-1.232-3.846-.672-4.256 0h-.112v-1.904h-2.464v20.048h2.576v-6.329l-.112-1.903h.112c.41.672 1.031 1.232 1.862 1.68.831.448 1.769.672 2.814.672 1.773 0 3.304-.701 4.592-2.1 1.289-1.4 1.931-3.137 1.931-5.208 0-2.072-.642-3.809-1.931-5.208C3.724-1.652 2.193-2.353.42-2.353" style="fill:#5f6368;fill-opacity:1;fill-rule:nonzero;stroke:none" transform="translate(240.772 87.466)"/>
        <path d="M252.503 85.562h-2.575v20.048h2.575z" style="fill:#5f6368;fill-opacity:1;fill-rule:nonzero;stroke:none"/>
        <path d="M0 0c-.057.784-.416 1.53-1.078 2.24-.663.709-1.649 1.065-2.954 1.065-.952 0-1.779-.299-2.479-.897-.7-.597-1.18-1.4-1.441-2.408zm-3.696-8.96c-2.073 0-3.757.69-5.054 2.072-1.298 1.381-1.946 3.126-1.946 5.237 0 1.997.63 3.714 1.889 5.151 1.26 1.437 2.87 2.156 4.83 2.156 2.035 0 3.664-.663 4.886-1.988C2.132 2.343 2.743.569 2.743-1.651l-.027-.477H-8.12c.074-1.382.536-2.474 1.386-3.275.848-.803 1.842-1.204 2.981-1.204 1.849 0 3.099.784 3.753 2.351l2.296-.952C1.848-6.271 1.11-7.163.084-7.882-.943-8.6-2.203-8.96-3.696-8.96" style="fill:#5f6368;fill-opacity:1;fill-rule:nonzero;stroke:none" transform="translate(265.412 94.074)"/>
        <path d="M279.467 85.562h-2.576v13.72h2.576zm0 17.164a1.757 1.757 0 0 0-1.288-.532c-.504 0-.934.178-1.288.532a1.754 1.754 0 0 0-.533 1.288c0 .504.178.933.533 1.288.354.355.784.532 1.288.532s.933-.177 1.288-.532c.354-.355.532-.784.532-1.288s-.178-.933-.532-1.288" style="fill:#5f6368;fill-opacity:1;fill-rule:nonzero;stroke:none"/>
        <path d="M0 0v-1.903h.111c.374.652.962 1.208 1.765 1.666a5.12 5.12 0 0 0 2.576.685c1.698 0 2.996-.522 3.892-1.568.896-1.045 1.344-2.445 1.344-4.199v-8.401H7.111v8.008c0 2.538-1.129 3.809-3.387 3.809-1.064 0-1.932-.425-2.604-1.275C.448-4.027.111-5.012.111-6.132v-7.588h-2.575V0Z" style="fill:#5f6368;fill-opacity:1;fill-rule:nonzero;stroke:none" transform="translate(285.29 99.282)"/>
        <path d="M0 0c-1.437 0-2.534.382-3.29 1.147-.756.766-1.134 1.849-1.134 3.249v7.196h-2.408v2.351h2.408v4.201h2.576v-4.201h3.36v-2.351h-3.36v-7c0-1.494.617-2.24 1.848-2.24.467 0 .858.074 1.176.223L2.072.363C1.512.121.821 0 0 0" style="fill:#5f6368;fill-opacity:1;fill-rule:nonzero;stroke:none" transform="translate(310.097 85.338)"/>
        <path d="M0 0v-6.328l-.111-1.903H0c.374.652.962 1.208 1.765 1.666a5.117 5.117 0 0 0 2.576.685c1.698 0 2.996-.522 3.891-1.568.897-1.045 1.344-2.446 1.344-4.199v-8.401H7v8.008c0 2.538-1.129 3.809-3.388 3.809-1.063 0-1.931-.425-2.603-1.275C.337-10.355 0-11.34 0-12.46v-7.588h-2.575V0Z" style="fill:#5f6368;fill-opacity:1;fill-rule:nonzero;stroke:none" transform="translate(316.788 105.61)"/>
        <path d="M0 0c-.057.784-.416 1.53-1.078 2.24-.663.709-1.649 1.065-2.954 1.065-.952 0-1.779-.299-2.479-.897-.7-.597-1.18-1.4-1.441-2.408zm-3.696-8.96c-2.073 0-3.757.69-5.054 2.072-1.298 1.381-1.946 3.126-1.946 5.237 0 1.997.63 3.714 1.889 5.151 1.26 1.437 2.87 2.156 4.83 2.156 2.035 0 3.664-.663 4.886-1.988C2.132 2.343 2.743.569 2.743-1.651l-.027-.477H-8.12c.074-1.382.536-2.474 1.386-3.275.848-.803 1.842-1.204 2.981-1.204 1.849 0 3.099.784 3.753 2.351l2.296-.952C1.848-6.271 1.11-7.163.084-7.882-.943-8.6-2.203-8.96-3.696-8.96" style="fill:#5f6368;fill-opacity:1;fill-rule:nonzero;stroke:none" transform="translate(339.3 94.074)"/>
    </g>
    <g clip-path="url(#c)" style="display:inline" transform="matrix(1.33333 0 0 -1.33333 -1.333 198.667)">
        <path d="M23.895 122.428h110.211V27.246H23.895Z" style="fill:#eee;fill-opacity:1;fill-rule:nonzero;stroke:none"/>
        <path d="M0 0h-25.048a5.01 5.01 0 1 1 0-10.019H0A5.008 5.008 0 0 1 5.01-5.01 5.009 5.009 0 0 1 0 0" style="fill:#fff;fill-opacity:1;fill-rule:nonzero;stroke:none" transform="translate(91.524 112.409)"/>
    </g>
    <g clip-path="url(#d)" transform="matrix(1.33333 0 0 -1.33333 -1.333 198.667)">
        <path d="M0 0v-58.405h21.297l18.736 32.449h47.591V0Zm0 0v-58.405h21.297l18.736 32.449h47.591V0Z" style="fill:#db4437;fill-opacity:1;fill-rule:nonzero;stroke:none" transform="translate(38.967 82.351)"/>
        <path d="M0 0h45.299l21.028 21.028v15.743l-37.472.006L0 86.266Zm0 0h45.299l21.028 21.028v15.743l-37.472.006L0 86.266Z" style="fill:#0f9d58;fill-opacity:1;fill-rule:nonzero;stroke:none" transform="translate(31.41 -12.831)"/>
        <path d="m0 0 18.736-32.449-21.022-36.778h49.877V0Zm0 0 18.736-32.449-21.022-36.778h49.877V0Z" style="fill:#ffcd40;fill-opacity:1;fill-rule:nonzero;stroke:none" transform="translate(79 56.395)"/>
        <path d="M0 0c11.949 0 21.635-9.687 21.635-21.636 0-11.948-9.686-21.635-21.635-21.635-11.949 0-21.635 9.687-21.635 21.635C-21.635-9.687-11.949 0 0 0" style="fill:#f1f1f1;fill-opacity:1;fill-rule:nonzero;stroke:none" transform="translate(79 56.395)"/>
        <path d="M0 0c9.559 0 17.308-7.749 17.308-17.309 0-9.558-7.749-17.307-17.308-17.307-9.559 0-17.308 7.749-17.308 17.307C-17.308-7.749-9.559 0 0 0" style="fill:#4285f4;fill-opacity:1;fill-rule:nonzero;stroke:none" transform="translate(79 52.068)"/>
    </g>
    <g clip-path="url(#e)" style="display:inline" transform="matrix(1.33333 0 0 -1.33333 -1.333 198.667)">
        <g clip-path="url(#f)" style="opacity:.0500031">
            <path d="M23.895 122.428h110.211V74.837H23.895Z" style="fill:#212121;fill-opacity:1;fill-rule:nonzero;stroke:none"/>
        </g>
    </g>
</svg>
