<svg xmlns="http://www.w3.org/2000/svg" xml:space="preserve" width="659" height="197">
    <defs>
        <radialGradient id="a" cx="0" cy="0" r="1" fx="0" fy="0" gradientTransform="translate(23.583 122.838)scale(142.51974)" gradientUnits="userSpaceOnUse" spreadMethod="pad">
            <stop offset="0" style="stop-opacity:.09999237;stop-color:#fff"/>
            <stop offset="1" style="stop-opacity:0;stop-color:#fff"/>
        </radialGradient>
        <radialGradient id="d" cx="577.23" cy="270.8" r="350.24" gradientTransform="matrix(1 0 0 -.95 -141 542.55)" gradientUnits="userSpaceOnUse">
            <stop offset=".72" stop-opacity="0"/>
            <stop offset=".95" stop-opacity=".53"/>
            <stop offset="1"/>
        </radialGradient>
        <radialGradient id="f" cx="235.46" cy="975.64" r="525.94" gradientTransform="matrix(.15 -.99 -.8 -.12 863.34 709.01)" gradientUnits="userSpaceOnUse">
            <stop offset=".76" stop-opacity="0"/>
            <stop offset=".95" stop-opacity=".5"/>
            <stop offset="1"/>
        </radialGradient>
        <radialGradient id="g" cx="571.11" cy="482.55" r="743.3" gradientTransform="matrix(-.04 1 2.13 .08 -1054.16 -807.04)" gradientUnits="userSpaceOnUse">
            <stop offset="0" stop-color="#35c1f1"/>
            <stop offset=".11" stop-color="#34c1ed"/>
            <stop offset=".23" stop-color="#2fc2df"/>
            <stop offset=".31" stop-color="#2bc3d2"/>
            <stop offset=".67" stop-color="#36c752"/>
        </radialGradient>
        <radialGradient id="h" cx="870.77" cy="764.62" r="357.41" gradientTransform="matrix(.28 .96 .78 -.23 -94.55 -745.34)" gradientUnits="userSpaceOnUse">
            <stop offset="0" stop-color="#66eb6e"/>
            <stop offset="1" stop-color="#66eb6e" stop-opacity="0"/>
        </radialGradient>
        <linearGradient id="c" x1="215.55" x2="870.38" y1="291.31" y2="291.31" gradientTransform="matrix(1 0 0 -1 -141 571.41)" gradientUnits="userSpaceOnUse">
            <stop offset="0" stop-color="#0c59a4"/>
            <stop offset="1" stop-color="#114a8b"/>
        </linearGradient>
        <linearGradient id="e" x1="560.78" x2="151.75" y1="575.39" y2="129.86" gradientTransform="matrix(1 0 0 -1 -141 571.41)" gradientUnits="userSpaceOnUse">
            <stop offset="0" stop-color="#1b9de2"/>
            <stop offset=".16" stop-color="#1595df"/>
            <stop offset=".67" stop-color="#0680d7"/>
            <stop offset="1" stop-color="#0078d4"/>
        </linearGradient>
        <clipPath id="b" clipPathUnits="userSpaceOnUse">
            <path d="M0 150h496V0H0Z"/>
        </clipPath>
    </defs>
    <path d="M16 0h627a16 16 45 0 1 16 16v165a16 16 135 0 1-16 16H16a16 16 45 0 1-16-16V16A16 16 135 0 1 16 0Z" style="display:inline;fill:#fff;fill-opacity:1;fill-rule:nonzero;stroke:none;stroke-width:1.33333"/>
    <path d="M643 0H16C7.163 0 0 7.163 0 16v165c0 8.837 7.163 16 16 16h627c8.837 0 16-7.163 16-16V16c0-8.837-7.163-16-16-16zm0 194H16c-7.18 0-13-5.82-13-13V16C3 8.82 8.82 3 16 3h627c7.18 0 13 5.82 13 13v165c0 7.18-5.82 13-13 13z" style="fill:#dadce0;fill-opacity:1;fill-rule:nonzero;stroke:none;stroke-width:2.033;stroke-dasharray:none;stroke-opacity:1"/>
    <g clip-path="url(#b)" transform="matrix(1.33333 0 0 -1.33333 -1.334 198.667)">
        <path d="M0 0c-3.897 0-7.166 1.319-9.805 3.959-2.639 2.639-3.959 5.932-3.959 9.879 0 3.946 1.32 7.239 3.959 9.879 2.639 2.638 5.908 3.959 9.805 3.959 3.996 0 7.239-1.444 9.731-4.329l-2.368-2.294C5.562 23.297 3.108 24.42 0 24.42c-2.886 0-5.322-.975-7.307-2.923-1.986-1.949-2.979-4.502-2.979-7.659 0-3.158.993-5.711 2.979-7.659C-5.322 4.229-2.886 3.256 0 3.256c3.182 0 5.896 1.282 8.14 3.848l2.368-2.369C9.299 3.28 7.782 2.127 5.957 1.276 4.131.426 2.146 0 0 0" style="fill:#5f6368;fill-opacity:1;fill-rule:nonzero;stroke:none" transform="translate(173.133 43.839)"/>
        <path d="M0 0v-8.362l-.148-2.516H0c.493.863 1.27 1.597 2.331 2.201a6.756 6.756 0 0 0 3.404.906c2.244 0 3.959-.69 5.143-2.071 1.184-1.382 1.776-3.232 1.776-5.551v-11.099H9.25v10.582c0 3.354-1.493 5.032-4.477 5.032-1.406 0-2.553-.561-3.441-1.684C.444-13.685 0-14.985 0-16.465v-10.027h-3.404V0Z" style="fill:#5f6368;fill-opacity:1;fill-rule:nonzero;stroke:none" transform="translate(190.08 70.923)"/>
        <path d="M0 0h-3.404v18.13h3.256v-2.96H0c.345.986 1.054 1.801 2.127 2.442 1.073.641 2.115.962 3.127.962 1.011 0 1.862-.148 2.553-.444l-1.295-3.182c-.444.172-1.049.259-1.813.259-1.234 0-2.325-.487-3.275-1.462C.475 12.771 0 11.494 0 9.916Z" style="fill:#5f6368;fill-opacity:1;fill-rule:nonzero;stroke:none" transform="translate(210.133 44.43)"/>
        <path d="M0 0c1.171-1.196 2.559-1.795 4.163-1.795 1.603 0 2.99.599 4.162 1.795 1.172 1.196 1.758 2.78 1.758 4.755 0 1.973-.586 3.558-1.758 4.754-1.172 1.196-2.559 1.795-4.162 1.795-1.604 0-2.992-.599-4.163-1.795-1.171-1.196-1.757-2.781-1.757-4.754C-1.757 2.78-1.171 1.196 0 0m-2.534 11.655c1.751 1.837 3.983 2.756 6.697 2.756 2.713 0 4.945-.919 6.697-2.756 1.751-1.838 2.627-4.138 2.627-6.9 0-2.764-.876-5.064-2.627-6.901-1.752-1.838-3.984-2.756-6.697-2.756-2.714 0-4.946.918-6.697 2.756-1.752 1.837-2.627 4.137-2.627 6.901 0 2.762.875 5.062 2.627 6.9" style="fill:#5f6368;fill-opacity:1;fill-rule:nonzero;stroke:none" transform="translate(223.174 48.741)"/>
        <path d="M0 0v18.13h3.256v-2.516h.148c.518.864 1.314 1.597 2.387 2.201 1.073.605 2.139.907 3.2.907 2.812 0 4.723-1.16 5.735-3.478 1.481 2.318 3.59 3.478 6.327 3.478 2.147 0 3.762-.685 4.847-2.053 1.086-1.369 1.628-3.226 1.628-5.569V0h-3.403v10.582c0 1.825-.333 3.12-1 3.885-.666.764-1.678 1.147-3.034 1.147-1.332 0-2.436-.568-3.311-1.702-.876-1.135-1.314-2.43-1.314-3.885V0h-3.404v10.582c0 1.825-.333 3.12-.999 3.885-.665.764-1.677 1.147-3.034 1.147-1.332 0-2.436-.568-3.311-1.702-.876-1.135-1.314-2.43-1.314-3.885V0Z" style="fill:#5f6368;fill-opacity:1;fill-rule:nonzero;stroke:none" transform="translate(239.399 44.43)"/>
        <path d="M0 0c-.074 1.036-.549 2.022-1.425 2.96-.875.937-2.177 1.406-3.903 1.406-1.258 0-2.35-.395-3.275-1.184-.924-.789-1.56-1.85-1.905-3.182Zm-4.884-11.84c-2.738 0-4.965.912-6.679 2.738-1.714 1.825-2.571 4.131-2.571 6.919 0 2.639.832 4.909 2.497 6.808s3.793 2.849 6.383 2.849c2.689 0 4.841-.876 6.456-2.627C2.817 3.096 3.626.752 3.626-2.183l-.037-.63h-14.318c.097-1.825.708-3.268 1.831-4.328 1.122-1.061 2.435-1.591 3.94-1.591 2.442 0 4.095 1.036 4.958 3.108l3.034-1.258C2.442-8.288 1.468-9.466.111-10.416c-1.357-.949-3.022-1.424-4.995-1.424" style="fill:#5f6368;fill-opacity:1;fill-rule:nonzero;stroke:none" transform="translate(284.02 55.679)"/>
        <path d="m0 0-7.067-26.492h-3.479l-5.697 17.464h-.149l-5.698-17.464h-3.477L-32.931 0h3.552l5.588-20.831h.147l5.736 17.279h3.181l5.736-17.279h.147L-3.553 0Z" style="fill:#5f6368;fill-opacity:1;fill-rule:nonzero;stroke:none" transform="translate(328.865 70.923)"/>
        <path d="M0 0c-.074 1.036-.549 2.022-1.425 2.96-.875.937-2.177 1.406-3.903 1.406-1.258 0-2.35-.395-3.275-1.184-.924-.789-1.56-1.85-1.905-3.182Zm-4.884-11.84c-2.738 0-4.965.912-6.679 2.738-1.714 1.825-2.571 4.131-2.571 6.919 0 2.639.832 4.909 2.497 6.808s3.793 2.849 6.383 2.849c2.689 0 4.841-.876 6.456-2.627C2.817 3.096 3.626.752 3.626-2.183l-.037-.63h-14.318c.097-1.825.708-3.268 1.831-4.328 1.122-1.061 2.435-1.591 3.94-1.591 2.442 0 4.095 1.036 4.958 3.108l3.034-1.258C2.442-8.288 1.468-9.466.111-10.416c-1.357-.949-3.022-1.424-4.995-1.424" style="fill:#5f6368;fill-opacity:1;fill-rule:nonzero;stroke:none" transform="translate(342.592 55.679)"/>
        <path d="M0 0c1.579 0 2.936.599 4.07 1.795 1.135 1.196 1.702 2.78 1.702 4.755 0 1.972-.567 3.557-1.702 4.754C2.936 12.5 1.579 13.099 0 13.099c-1.604 0-2.966-.592-4.088-1.777-1.123-1.183-1.683-2.774-1.683-4.772 0-1.998.56-3.59 1.683-4.774C-2.966.593-1.604 0 0 0m.556-3.107c-1.382 0-2.621.295-3.719.887C-4.261-1.628-5.081-.888-5.624 0h-.147v-2.516h-3.256v26.493h3.403v-8.363l-.147-2.515h.147c.543.887 1.363 1.628 2.461 2.219 1.098.592 2.337.888 3.719.888 2.342 0 4.366-.925 6.067-2.774 1.702-1.851 2.554-4.145 2.554-6.882 0-2.738-.852-5.032-2.554-6.883C4.922-2.183 2.898-3.107.556-3.107" style="fill:#5f6368;fill-opacity:1;fill-rule:nonzero;stroke:none" transform="translate(358.353 46.946)"/>
        <path d="M0 0c-1.924 0-3.805.629-5.643 1.887-1.837 1.258-3.04 3.021-3.607 5.291l3.108 1.258a7.1 7.1 0 0 1 2.276-3.682C-2.719 3.755-1.431 3.256 0 3.256c1.48 0 2.744.389 3.793 1.165 1.048.777 1.572 1.832 1.572 3.164 0 1.479-.524 2.62-1.572 3.422-1.049.802-2.708 1.548-4.977 2.239-2.343.739-4.12 1.695-5.328 2.867-1.209 1.171-1.812 2.67-1.812 4.495 0 1.9.752 3.553 2.257 4.958 1.504 1.407 3.464 2.11 5.882 2.11 2.245 0 4.071-.562 5.476-1.684 1.406-1.123 2.318-2.349 2.738-3.681l-3.108-1.295c-.222.838-.771 1.615-1.647 2.331-.875.715-2.003 1.073-3.384 1.073-1.308 0-2.424-.364-3.349-1.092-.925-.727-1.388-1.634-1.388-2.72 0-.986.426-1.819 1.277-2.497.851-.678 2.102-1.289 3.756-1.831 1.306-.42 2.398-.827 3.274-1.221a15.225 15.225 0 0 0 2.664-1.573 6.273 6.273 0 0 0 2.035-2.442c.456-.975.685-2.103.685-3.385 0-1.283-.266-2.43-.796-3.441-.531-1.012-1.234-1.813-2.11-2.406A10.607 10.607 0 0 0 0 0" style="fill:#5f6368;fill-opacity:1;fill-rule:nonzero;stroke:none" transform="translate(385.733 43.839)"/>
        <path d="M0 0c-1.899 0-3.349.505-4.348 1.517-.999 1.011-1.498 2.442-1.498 4.292v9.509h-3.182v3.108h3.182v5.55h3.404v-5.55h4.44v-3.108h-4.44v-9.25c0-1.974.814-2.961 2.442-2.961.616 0 1.134.099 1.554.297L2.738.48C1.998.16 1.085 0 0 0" style="fill:#5f6368;fill-opacity:1;fill-rule:nonzero;stroke:none" transform="translate(405.048 44.135)"/>
        <path d="M0 0c1.172-1.196 2.559-1.795 4.163-1.795 1.603 0 2.99.599 4.162 1.795 1.171 1.196 1.758 2.78 1.758 4.755 0 1.973-.587 3.558-1.758 4.754-1.172 1.196-2.559 1.795-4.162 1.795-1.604 0-2.991-.599-4.163-1.795-1.172-1.196-1.757-2.781-1.757-4.754C-1.757 2.78-1.172 1.196 0 0m-2.534 11.655c1.751 1.837 3.983 2.756 6.697 2.756 2.713 0 4.945-.919 6.696-2.756 1.752-1.838 2.627-4.138 2.627-6.9 0-2.764-.875-5.064-2.627-6.901-1.751-1.838-3.983-2.756-6.696-2.756-2.714 0-4.946.918-6.697 2.756-1.752 1.837-2.627 4.137-2.627 6.901 0 2.762.875 5.062 2.627 6.9" style="fill:#5f6368;fill-opacity:1;fill-rule:nonzero;stroke:none" transform="translate(414.242 48.741)"/>
        <path d="M0 0h-3.403v18.13h3.256v-2.96H0c.346.986 1.055 1.801 2.128 2.442 1.073.641 2.115.962 3.127.962 1.011 0 1.861-.148 2.553-.444l-1.295-3.182c-.445.172-1.049.259-1.814.259-1.233 0-2.325-.487-3.274-1.462C.475 12.771 0 11.494 0 9.916Z" style="fill:#5f6368;fill-opacity:1;fill-rule:nonzero;stroke:none" transform="translate(433.87 44.43)"/>
        <path d="M0 0c-.074 1.036-.549 2.022-1.425 2.96-.875.937-2.177 1.406-3.903 1.406-1.258 0-2.35-.395-3.275-1.184-.924-.789-1.56-1.85-1.905-3.182Zm-4.884-11.84c-2.738 0-4.965.912-6.679 2.738-1.714 1.825-2.571 4.131-2.571 6.919 0 2.639.832 4.909 2.497 6.808s3.793 2.849 6.383 2.849c2.689 0 4.841-.876 6.456-2.627C2.817 3.096 3.626.752 3.626-2.183l-.037-.63h-14.318c.097-1.825.708-3.268 1.831-4.328 1.122-1.061 2.435-1.591 3.94-1.591 2.442 0 4.095 1.036 4.958 3.108l3.034-1.258C2.442-8.288 1.468-9.466.111-10.416c-1.357-.949-3.022-1.424-4.995-1.424" style="fill:#5f6368;fill-opacity:1;fill-rule:nonzero;stroke:none" transform="translate(455.885 55.679)"/>
        <path d="M0 0h6.664L3.388 9.044h-.112Zm-5.684-7.84 7.56 20.048h2.912l7.56-20.048H9.492L7.56-2.408H-.868l-1.96-5.432z" style="fill:#5f6368;fill-opacity:1;fill-rule:nonzero;stroke:none" transform="translate(167.02 93.402)"/>
        <path d="m0 0-5.544 13.72h2.8L1.288 3.08h.056l4.088 10.64h2.744L2.576 0Z" style="fill:#5f6368;fill-opacity:1;fill-rule:nonzero;stroke:none" transform="translate(183.96 85.562)"/>
        <path d="M0 0c1.064 0 2.03.396 2.898 1.189.868.793 1.302 1.732 1.302 2.815-.728.597-1.82.895-3.276.895-1.251 0-2.194-.27-2.828-.811-.635-.542-.952-1.176-.952-1.904 0-.672.289-1.205.868-1.596C-1.41.195-.747 0 0 0m-.42-2.353c-1.456 0-2.674.42-3.654 1.26-.98.841-1.47 1.951-1.47 3.332 0 1.493.578 2.665 1.736 3.515 1.157.849 2.585 1.273 4.284 1.273 1.512 0 2.753-.279 3.724-.84v.393c0 1.008-.346 1.815-1.036 2.422-.691.606-1.54.91-2.548.91a3.952 3.952 0 0 1-2.03-.532c-.607-.356-1.022-.84-1.246-1.456l-2.352 1.008c.317.821.942 1.582 1.876 2.282.933.7 2.165 1.05 3.696 1.05 1.754 0 3.21-.514 4.368-1.54 1.157-1.027 1.736-2.474 1.736-4.34v-8.288H4.2V0h-.112C3.061-1.568 1.558-2.353-.42-2.353" style="fill:#5f6368;fill-opacity:1;fill-rule:nonzero;stroke:none" transform="translate(198.296 87.466)"/>
        <path d="M210.672 85.562h-2.576v13.72h2.576zm0 17.164a1.757 1.757 0 0 0-1.288-.532c-.504 0-.934.178-1.288.532a1.754 1.754 0 0 0-.533 1.288c0 .504.178.933.533 1.288.354.355.784.532 1.288.532s.933-.177 1.288-.532c.354-.355.532-.784.532-1.288s-.178-.933-.532-1.288M216.607 85.562h-2.576v20.048h2.576z" style="fill:#5f6368;fill-opacity:1;fill-rule:nonzero;stroke:none"/>
        <path d="M0 0c1.064 0 2.03.396 2.898 1.189.868.793 1.302 1.732 1.302 2.815-.728.597-1.82.895-3.276.895-1.251 0-2.194-.27-2.828-.811-.635-.542-.952-1.176-.952-1.904 0-.672.289-1.205.868-1.596C-1.41.195-.747 0 0 0m-.42-2.353c-1.456 0-2.674.42-3.654 1.26-.98.841-1.47 1.951-1.47 3.332 0 1.493.578 2.665 1.736 3.515 1.157.849 2.585 1.273 4.284 1.273 1.512 0 2.753-.279 3.724-.84v.393c0 1.008-.346 1.815-1.036 2.422-.691.606-1.54.91-2.548.91a3.952 3.952 0 0 1-2.03-.532c-.607-.356-1.022-.84-1.246-1.456l-2.352 1.008c.317.821.942 1.582 1.876 2.282.933.7 2.165 1.05 3.696 1.05 1.754 0 3.21-.514 4.368-1.54 1.157-1.027 1.736-2.474 1.736-4.34v-8.288H4.2V0h-.112C3.061-1.568 1.558-2.353-.42-2.353" style="fill:#5f6368;fill-opacity:1;fill-rule:nonzero;stroke:none" transform="translate(224.364 87.466)"/>
        <path d="M0 0c1.194 0 2.221.452 3.08 1.357.858.906 1.288 2.105 1.288 3.599 0 1.493-.43 2.692-1.288 3.598-.859.905-1.886 1.358-3.08 1.358-1.213 0-2.245-.448-3.094-1.345-.849-.895-1.274-2.099-1.274-3.611 0-1.513.425-2.717 1.274-3.612C-2.245.447-1.213 0 0 0m.42-2.353c-1.045 0-1.983.225-2.814.672C-3.225-1.232-3.846-.672-4.256 0h-.112v-1.904h-2.464v20.048h2.576v-6.329l-.112-1.903h.112c.41.672 1.031 1.232 1.862 1.68.831.448 1.769.672 2.814.672 1.773 0 3.304-.701 4.592-2.1 1.289-1.4 1.931-3.137 1.931-5.208 0-2.072-.642-3.809-1.931-5.208C3.724-1.652 2.193-2.353.42-2.353" style="fill:#5f6368;fill-opacity:1;fill-rule:nonzero;stroke:none" transform="translate(240.772 87.466)"/>
        <path d="M252.503 85.562h-2.575v20.048h2.575z" style="fill:#5f6368;fill-opacity:1;fill-rule:nonzero;stroke:none"/>
        <path d="M0 0c-.057.784-.416 1.53-1.078 2.24-.663.709-1.649 1.065-2.954 1.065-.952 0-1.779-.299-2.479-.897-.7-.597-1.18-1.4-1.441-2.408zm-3.696-8.96c-2.073 0-3.757.69-5.054 2.072-1.298 1.381-1.946 3.126-1.946 5.237 0 1.997.63 3.714 1.889 5.151 1.26 1.437 2.87 2.156 4.83 2.156 2.035 0 3.664-.663 4.886-1.988C2.132 2.343 2.743.569 2.743-1.651l-.027-.477H-8.12c.074-1.382.536-2.474 1.386-3.275.848-.803 1.842-1.204 2.981-1.204 1.849 0 3.099.784 3.753 2.351l2.296-.952C1.848-6.271 1.11-7.163.084-7.882-.943-8.6-2.203-8.96-3.696-8.96" style="fill:#5f6368;fill-opacity:1;fill-rule:nonzero;stroke:none" transform="translate(265.412 94.074)"/>
        <path d="M279.467 85.562h-2.576v13.72h2.576zm0 17.164a1.757 1.757 0 0 0-1.288-.532c-.504 0-.934.178-1.288.532a1.754 1.754 0 0 0-.533 1.288c0 .504.178.933.533 1.288.354.355.784.532 1.288.532s.933-.177 1.288-.532c.354-.355.532-.784.532-1.288s-.178-.933-.532-1.288" style="fill:#5f6368;fill-opacity:1;fill-rule:nonzero;stroke:none"/>
        <path d="M0 0v-1.903h.111c.374.652.962 1.208 1.765 1.666a5.12 5.12 0 0 0 2.576.685c1.698 0 2.996-.522 3.892-1.568.896-1.045 1.344-2.445 1.344-4.199v-8.401H7.111v8.008c0 2.538-1.129 3.809-3.387 3.809-1.064 0-1.932-.425-2.604-1.275C.448-4.027.111-5.012.111-6.132v-7.588h-2.575V0Z" style="fill:#5f6368;fill-opacity:1;fill-rule:nonzero;stroke:none" transform="translate(285.29 99.282)"/>
        <path d="M0 0c-1.437 0-2.534.382-3.29 1.147-.756.766-1.134 1.849-1.134 3.249v7.196h-2.408v2.351h2.408v4.201h2.576v-4.201h3.36v-2.351h-3.36v-7c0-1.494.617-2.24 1.848-2.24.467 0 .858.074 1.176.223L2.072.363C1.512.121.821 0 0 0" style="fill:#5f6368;fill-opacity:1;fill-rule:nonzero;stroke:none" transform="translate(310.097 85.338)"/>
        <path d="M0 0v-6.328l-.111-1.903H0c.374.652.962 1.208 1.765 1.666a5.117 5.117 0 0 0 2.576.685c1.698 0 2.996-.522 3.891-1.568.897-1.045 1.344-2.446 1.344-4.199v-8.401H7v8.008c0 2.538-1.129 3.809-3.388 3.809-1.063 0-1.931-.425-2.603-1.275C.337-10.355 0-11.34 0-12.46v-7.588h-2.575V0Z" style="fill:#5f6368;fill-opacity:1;fill-rule:nonzero;stroke:none" transform="translate(316.788 105.61)"/>
        <path d="M0 0c-.057.784-.416 1.53-1.078 2.24-.663.709-1.649 1.065-2.954 1.065-.952 0-1.779-.299-2.479-.897-.7-.597-1.18-1.4-1.441-2.408zm-3.696-8.96c-2.073 0-3.757.69-5.054 2.072-1.298 1.381-1.946 3.126-1.946 5.237 0 1.997.63 3.714 1.889 5.151 1.26 1.437 2.87 2.156 4.83 2.156 2.035 0 3.664-.663 4.886-1.988C2.132 2.343 2.743.569 2.743-1.651l-.027-.477H-8.12c.074-1.382.536-2.474 1.386-3.275.848-.803 1.842-1.204 2.981-1.204 1.849 0 3.099.784 3.753 2.351l2.296-.952C1.848-6.271 1.11-7.163.084-7.882-.943-8.6-2.203-8.96-3.696-8.96" style="fill:#5f6368;fill-opacity:1;fill-rule:nonzero;stroke:none" transform="translate(339.3 94.074)"/>
    </g>
    <path fill="url(#c)" d="M707.39 329.62a345.49 345.49 0 0 1-38.68 17.31 374.76 374.76 0 0 1-131.82 23.73c-173.75 0-325.12-119.53-325.12-272.9 0-43.13 25-80.51 60.31-100.2C115 4.14 74.55 167.93 74.55 263.88c0 271.25 250 298.78 303.89 298.78 29 0 72.85-8.46 99.25-16.74q2.41-.79 4.81-1.63A471.25 471.25 0 0 0 727 350.35c8.12-12.86-6.14-27.79-19.61-20.73z" style="fill:url(#c)" transform="matrix(.1433 0 0 .1433 62.04 84.687)"/>
    <path fill="url(#d)" d="M707.39 329.62a345.49 345.49 0 0 1-38.68 17.31 374.76 374.76 0 0 1-131.82 23.73c-173.75 0-325.12-119.53-325.12-272.9 0-43.13 25-80.51 60.31-100.2C115 4.14 74.55 167.93 74.55 263.88c0 271.25 250 298.78 303.89 298.78 29 0 72.85-8.46 99.25-16.74q2.41-.79 4.81-1.63A471.25 471.25 0 0 0 727 350.35c8.12-12.86-6.14-27.79-19.61-20.73z" opacity=".35" style="isolation:isolate;fill:url(#d)" transform="matrix(.1433 0 0 .1433 62.04 84.687)"/>
    <path fill="url(#e)" d="M247.16 516.44A290.4 290.4 0 0 1 163.68 438a299 299 0 0 1-55.56-174.07c0-96 44.67-180.93 113.54-234.78 15.64-12.23 35.67-24.56 50.42-31.54 11.46-5.43 31.06-15.2 57.09-14.83a118.83 118.83 0 0 1 94.31 47.6 116.92 116.92 0 0 1 23.34 68.52c0-.77 89.83-292.3-293.93-292.3C-8.28-193.45-141-40.44-141 93.75c0 85.12 19.75 153.08 44.48 205.75a470.18 470.18 0 0 0 574.21 246.42 278.2 278.2 0 0 1-83.42 12.82c-53.87 0-104.08-15.63-147.11-42.3z" style="fill:url(#e)" transform="matrix(.1433 0 0 .1433 62.04 84.687)"/>
    <path fill="url(#f)" d="M247.16 516.44A290.4 290.4 0 0 1 163.68 438a299 299 0 0 1-55.56-174.07c0-96 44.67-180.93 113.54-234.78 15.64-12.23 35.67-24.56 50.42-31.54 11.46-5.43 31.06-15.2 57.09-14.83a118.83 118.83 0 0 1 94.31 47.6 116.92 116.92 0 0 1 23.34 68.52c0-.77 89.83-292.3-293.93-292.3C-8.28-193.45-141-40.44-141 93.75c0 85.12 19.75 153.08 44.48 205.75a470.18 470.18 0 0 0 574.21 246.42 278.2 278.2 0 0 1-83.42 12.82c-53.87 0-104.08-15.63-147.11-42.3z" opacity=".41" style="isolation:isolate;fill:url(#f)" transform="matrix(.1433 0 0 .1433 62.04 84.687)"/>
    <path fill="url(#g)" d="M418.28 176.59c-3 3.85-12.13 9.17-12.13 20.79 0 9.57 6.24 18.79 17.34 26.54 52.8 36.85 152.33 31.88 152.59 31.88 41.09-.14 78-11.44 111.16-30.8a225.7 225.7 0 0 0 41.57-31.21C772 152.8 798.25 95 799 30.86c.93-82.31-29.23-137-41.63-161.26C679.53-282.48 511.56-370 328.92-370 71.47-370-137.52-163.1-141 93.39c1.75-134.18 135.1-242.53 293.63-242.53 12.85 0 86.15 1.25 154.23 37 60 31.47 91.43 69.51 113.28 107.24 22.7 39.18 26.73 88.67 26.73 108.39s-9.87 48.93-28.59 73.1z" style="fill:url(#g)" transform="matrix(.1433 0 0 .1433 62.04 84.687)"/>
    <path fill="url(#h)" d="M418.28 176.59c-3 3.85-12.13 9.17-12.13 20.79 0 9.57 6.24 18.79 17.34 26.54 52.8 36.85 152.33 31.88 152.59 31.88 41.09-.14 78-11.44 111.16-30.8a225.7 225.7 0 0 0 41.57-31.21C772 152.8 798.25 95 799 30.86c.93-82.31-29.23-137-41.63-161.26C679.53-282.48 511.56-370 328.92-370 71.47-370-137.52-163.1-141 93.39c1.75-134.18 135.1-242.53 293.63-242.53 12.85 0 86.15 1.25 154.23 37 60 31.47 91.43 69.51 113.28 107.24 22.7 39.18 26.73 88.67 26.73 108.39s-9.87 48.93-28.59 73.1z" style="fill:url(#h)" transform="matrix(.1433 0 0 .1433 62.04 84.687)"/>
</svg>
